<svg width="24" height="23" viewBox="0 0 24 23" fill="none" xmlns="http://www.w3.org/2000/svg">
<path opacity="0.1" fill-rule="evenodd" clip-rule="evenodd" d="M0.851562 11.7743C0.851562 5.62345 5.83782 0.637192 11.9887 0.637192C18.1395 0.637192 23.1258 5.62345 23.1258 11.7743C23.1258 17.9252 18.1395 22.9114 11.9887 22.9114C5.83782 22.9114 0.851562 17.9252 0.851562 11.7743Z" fill="white"/>
<path fill-rule="evenodd" clip-rule="evenodd" d="M11.9889 5.8345C10.3758 5.8345 10.1733 5.84156 9.53973 5.87039C8.90739 5.89935 8.47576 5.99946 8.09808 6.14635C7.70741 6.29806 7.37602 6.501 7.04586 6.83129C6.71546 7.16144 6.51251 7.49284 6.3603 7.88338C6.21304 8.26118 6.11281 8.69293 6.08435 9.32503C6.05601 9.95862 6.04858 10.1612 6.04858 11.7744C6.04858 13.3875 6.05576 13.5894 6.08447 14.2229C6.11355 14.8553 6.21366 15.2869 6.36043 15.6646C6.51226 16.0553 6.71521 16.3867 7.04549 16.7168C7.37552 17.0472 7.70692 17.2507 8.09734 17.4024C8.47526 17.5493 8.90702 17.6494 9.53924 17.6783C10.1728 17.7072 10.3752 17.7142 11.9882 17.7142C13.6015 17.7142 13.8033 17.7072 14.4369 17.6783C15.0692 17.6494 15.5014 17.5493 15.8793 17.4024C16.2698 17.2507 16.6007 17.0472 16.9308 16.7168C17.2612 16.3867 17.4641 16.0553 17.6163 15.6647C17.7623 15.2869 17.8626 14.8552 17.8923 14.2231C17.9207 13.5895 17.9282 13.3875 17.9282 11.7744C17.9282 10.1612 17.9207 9.95874 17.8923 9.32516C17.8626 8.69281 17.7623 8.26118 17.6163 7.88351C17.4641 7.49284 17.2612 7.16144 16.9308 6.83129C16.6004 6.50088 16.27 6.29794 15.8789 6.14635C15.5003 5.99946 15.0684 5.89935 14.436 5.87039C13.8024 5.84156 13.6007 5.8345 11.9871 5.8345H11.9889ZM11.4561 6.9049C11.6142 6.90465 11.7907 6.9049 11.9889 6.9049C13.5748 6.9049 13.7628 6.91059 14.3891 6.93905C14.9682 6.96553 15.2826 7.0623 15.4919 7.14361C15.7691 7.25127 15.9668 7.37996 16.1745 7.58786C16.3824 7.79575 16.5111 7.99375 16.619 8.27094C16.7003 8.48007 16.7972 8.79439 16.8236 9.37353C16.852 9.99969 16.8582 10.1878 16.8582 11.773C16.8582 13.3582 16.852 13.5463 16.8236 14.1724C16.7971 14.7516 16.7003 15.0659 16.619 15.275C16.5114 15.5522 16.3824 15.7496 16.1745 15.9574C15.9666 16.1653 15.7693 16.294 15.4919 16.4016C15.2828 16.4833 14.9682 16.5798 14.3891 16.6063C13.7629 16.6348 13.5748 16.6409 11.9889 16.6409C10.4028 16.6409 10.2149 16.6348 9.58871 16.6063C9.00958 16.5796 8.69526 16.4828 8.48576 16.4015C8.20856 16.2938 8.01057 16.1651 7.80267 15.9572C7.59478 15.7493 7.46608 15.5518 7.35817 15.2745C7.27687 15.0654 7.17998 14.7511 7.15362 14.1719C7.12516 13.5458 7.11946 13.3577 7.11946 11.7715C7.11946 10.1853 7.12516 9.9982 7.15362 9.37204C7.1801 8.79291 7.27687 8.47859 7.35817 8.26921C7.46583 7.99202 7.59478 7.79402 7.80267 7.58612C8.01057 7.37823 8.20856 7.24953 8.48576 7.14163C8.69514 7.05995 9.00958 6.96343 9.58871 6.93682C10.1367 6.91208 10.349 6.90465 11.4561 6.90341V6.9049ZM15.1596 7.89116C14.766 7.89116 14.4468 8.21006 14.4468 8.6037C14.4468 8.99721 14.766 9.31648 15.1596 9.31648C15.5531 9.31648 15.8723 8.99721 15.8723 8.6037C15.8723 8.21018 15.5531 7.89116 15.1596 7.89116ZM11.9889 8.72398C10.3044 8.72398 8.93858 10.0898 8.93858 11.7743C8.93858 13.4589 10.3044 14.8241 11.9889 14.8241C13.6735 14.8241 15.0388 13.4589 15.0388 11.7743C15.0388 10.0898 13.6735 8.72398 11.9889 8.72398ZM11.9889 9.79439C13.0823 9.79439 13.9689 10.6808 13.9689 11.7743C13.9689 12.8678 13.0823 13.7543 11.9889 13.7543C10.8954 13.7543 10.009 12.8678 10.009 11.7743C10.009 10.6808 10.8954 9.79439 11.9889 9.79439Z" fill="white"/>
</svg>
