<svg width="34" height="34" viewBox="0 0 34 34" fill="none" xmlns="http://www.w3.org/2000/svg">
<g clip-path="url(#clip0_211_2072)">
<path d="M30.0804 8.50259C30.0804 8.82695 30.3466 9.0899 30.675 9.0899H31.2696C31.598 9.0899 31.8641 8.82695 31.8641 8.50259C31.8641 8.17823 31.598 7.91528 31.2696 7.91528H30.675C30.3466 7.91528 30.0804 8.17823 30.0804 8.50259Z" fill="#212326"/>
<path d="M12.8383 26.7092H15.7265L14.8857 25.8786C14.6627 25.6583 14.3602 25.5345 14.0449 25.5345H12.8383C8.24113 25.5345 4.51444 21.8533 4.51444 17.3122C4.51444 12.7712 8.24113 9.08991 12.8383 9.0899H22.3512C26.9483 9.0899 30.675 12.7712 30.675 17.3122C30.675 21.8533 26.9483 25.5345 22.3512 25.5345H18.7926C18.3195 25.5345 17.8659 25.3489 17.5313 25.0185L16.5463 24.0454C15.9888 23.4947 15.2326 23.1853 14.4441 23.1853H12.8383C9.55459 23.1853 6.89267 20.5559 6.89267 17.3122C6.89267 14.0686 9.55459 11.4391 12.8383 11.4391H22.3512C25.6349 11.4391 28.2968 14.0686 28.2968 17.3122C28.2968 20.5559 25.6349 23.1853 22.3512 23.1853H20.0663C19.5932 23.1853 19.1395 22.9997 18.805 22.6693L17.8199 21.6962C17.2624 21.1455 16.5062 20.8361 15.7178 20.8361H12.8383C10.8681 20.8361 9.27091 19.2584 9.27091 17.3122C9.27091 15.3661 10.8681 13.7884 12.8383 13.7884H22.3512C24.3214 13.7884 25.9186 15.3661 25.9186 17.3122C25.9186 19.2346 24.3601 20.7975 22.4231 20.8354L22.4228 20.8361H21.5527C21.0796 20.8361 20.6259 20.6504 20.2914 20.32L19.3063 19.3469C18.8488 18.895 18.2577 18.6057 17.6246 18.5163L17.5947 18.4868H12.8383C12.1815 18.4868 11.6491 17.9609 11.6491 17.3122C11.6491 16.6635 12.1815 16.1376 12.8383 16.1376H22.3512C23.0079 16.1376 23.5403 16.6635 23.5403 17.3122C23.5403 17.9609 23.0079 18.4868 22.3512 18.4868H19.973L20.8138 19.3174C21.0368 19.5377 21.3393 19.6615 21.6546 19.6615H22.3512C23.6647 19.6615 24.7295 18.6097 24.7295 17.3122C24.7295 16.0148 23.6647 14.963 22.3512 14.963H12.8383C11.5248 14.963 10.46 16.0148 10.46 17.3122C10.46 18.6097 11.5248 19.6615 12.8383 19.6615H17.2042C17.6773 19.6615 18.1309 19.8471 18.4655 20.1775L19.4506 21.1506C20.0081 21.7013 20.7642 22.0107 21.5527 22.0107H22.6485V22.0017C25.1369 21.8501 27.1077 19.8085 27.1077 17.3122C27.1077 14.7174 24.9781 12.6138 22.3512 12.6138H12.8383C10.2114 12.6138 8.08179 14.7174 8.08179 17.3122C8.08179 19.9071 10.2114 22.0107 12.8383 22.0107H15.7178C16.1909 22.0107 16.6445 22.1963 16.9791 22.5267L17.9642 23.4998C18.5217 24.0505 19.2778 24.3599 20.0663 24.3599H22.3512C26.2916 24.3599 29.4859 21.2046 29.4859 17.3122C29.4859 13.4199 26.2916 10.2645 22.3512 10.2645H12.8383C8.89786 10.2645 5.70355 13.4199 5.70355 17.3122C5.70355 21.2046 8.89786 24.3599 12.8383 24.3599H14.4441C14.9172 24.3599 15.3709 24.5456 15.7054 24.876L16.6905 25.8491C17.248 26.3998 18.0042 26.7092 18.7926 26.7092H22.3512C27.6051 26.7092 31.8642 22.502 31.8642 17.3122C31.8642 12.1224 27.6051 7.91528 22.3512 7.91528L12.8383 7.91529C7.58441 7.91529 3.32532 12.1224 3.32532 17.3122C3.32532 22.502 7.58441 26.7092 12.8383 26.7092Z" fill="#212326"/>
</g>
<defs>
<clipPath id="clip0_211_2072">
<rect width="28.5388" height="18.7939" fill="white" transform="translate(3.32532 7.91528)"/>
</clipPath>
</defs>
</svg>
