<svg width="34" height="34" viewBox="0 0 34 34" fill="none" xmlns="http://www.w3.org/2000/svg">
<g clip-path="url(#clip0_211_2056)">
<path d="M31.7849 9.70056C31.7849 9.72409 31.7849 9.75352 31.7788 9.77117C31.7481 10.0007 31.7481 10.2301 31.7665 10.4655C31.7788 10.5243 31.791 10.5832 31.8401 10.6303C31.9198 10.7185 32.0424 10.7009 32.0915 10.595C32.116 10.542 32.116 10.489 32.1037 10.4361C32.0424 10.2125 32.0301 9.97712 32.024 9.74763C32.024 9.73586 32.024 9.71821 32.024 9.70056C32.0914 9.69467 32.1528 9.68879 32.2079 9.68879C32.2509 9.68291 32.2876 9.67702 32.3183 9.65937C32.4102 9.6123 32.4102 9.51226 32.3121 9.46519C32.2754 9.44754 32.2263 9.44165 32.1834 9.44165C32.0301 9.44754 31.8769 9.44754 31.7236 9.44754C31.6684 9.44754 31.6132 9.45342 31.558 9.4593C31.5274 9.46519 31.4906 9.46519 31.4661 9.48284C31.4232 9.50049 31.3987 9.52991 31.3987 9.5711C31.4048 9.6123 31.4232 9.63583 31.4661 9.65348C31.4906 9.67114 31.5213 9.67702 31.5519 9.67702C31.6255 9.68291 31.7052 9.69467 31.7849 9.70056ZM33.4709 9.97123C33.4709 9.97712 33.477 9.983 33.477 9.983C33.5015 10.1419 33.5261 10.2949 33.5444 10.4478C33.5506 10.5008 33.5567 10.5479 33.5935 10.5891C33.6732 10.6891 33.7958 10.6773 33.851 10.5714C33.8755 10.5185 33.8816 10.4655 33.8694 10.4067C33.8326 10.2301 33.8142 10.0536 33.7774 9.88297C33.7529 9.77705 33.7223 9.67702 33.6916 9.58287C33.6732 9.52403 33.6303 9.48284 33.5567 9.47696C33.4832 9.46519 33.428 9.50049 33.3973 9.55345C33.3605 9.60052 33.3299 9.6476 33.3053 9.70056C33.2624 9.7947 33.2256 9.88885 33.1766 9.97712C33.1704 10.0007 33.1643 10.0183 33.1521 10.036C33.146 10.0242 33.1398 10.0183 33.1398 10.0183C33.0601 9.8712 32.9865 9.72409 32.9069 9.58287C32.8946 9.5711 32.8884 9.55933 32.8823 9.54757C32.8455 9.49461 32.8026 9.46519 32.7352 9.46519C32.6739 9.47107 32.6248 9.50638 32.5942 9.55933C32.5819 9.58287 32.5819 9.60052 32.5758 9.62406C32.5512 9.81236 32.5206 10.0007 32.4961 10.1889C32.4838 10.2949 32.4777 10.4008 32.4777 10.5067C32.4716 10.5302 32.4777 10.5596 32.4899 10.5832C32.5022 10.6303 32.539 10.6597 32.588 10.6656C32.6493 10.6715 32.6922 10.6538 32.7107 10.6067C32.729 10.5714 32.7352 10.542 32.7413 10.5126C32.7659 10.4067 32.7842 10.3066 32.8026 10.2066C32.8149 10.1478 32.821 10.1007 32.8394 10.036C32.8517 10.0595 32.8639 10.0771 32.8762 10.0948C32.9313 10.1654 32.9865 10.236 33.054 10.2949C33.1214 10.3419 33.1766 10.3361 33.2318 10.2831C33.2441 10.2713 33.2502 10.2654 33.2624 10.2537C33.3176 10.1713 33.3851 10.0889 33.4402 10.0065C33.4525 9.99477 33.4586 9.983 33.4709 9.97123Z" fill="#3A3B7B"/>
<path d="M19.3447 9.81622C19.3021 9.92805 19.294 10.0086 19.3136 10.0756C19.3354 10.1666 19.3918 10.1964 19.4683 10.1733C20.1884 10.0024 21.7675 10.4875 22.3521 10.6227C22.49 10.6511 22.6022 10.4803 22.5081 10.3271C22.3708 10.1788 20.7924 9.54376 20.1902 9.50913C19.9541 9.49633 19.5321 9.43823 19.3447 9.81622Z" fill="#3A3B7B"/>
<path d="M25.516 7.76059C25.5928 7.80311 25.6357 7.84366 25.6568 7.88897C25.6884 7.94841 25.6717 7.98954 25.6187 8.01052C25.1427 8.23349 24.5093 9.19344 24.2536 9.52451C24.1917 9.60067 24.0487 9.55641 24.0271 9.43117C24.0315 9.28955 24.593 8.2478 24.9064 7.96407C25.0295 7.85329 25.233 7.63592 25.516 7.76059Z" fill="#3A3B7B"/>
<path d="M21.7252 7.28796C21.8174 7.22127 21.9132 7.19789 21.9622 7.24124C22.6804 7.83074 23.0612 8.76426 23.297 9.61888C23.3059 9.63879 23.3065 9.66737 23.2994 9.69717C23.2964 9.72265 23.277 9.74956 23.2462 9.77038C23.2133 9.79337 23.185 9.80037 23.1717 9.78056C22.8569 9.36965 21.0591 7.77088 21.7252 7.28796Z" fill="#3A3B7B"/>
<path d="M6.5167 17.5083C6.68883 17.3853 6.87596 17.2829 7.07398 17.2035C7.28116 17.1466 7.50199 17.156 7.7031 17.2304C7.90416 17.3047 8.0746 17.4398 8.18855 17.6153C8.29048 17.7904 8.33034 17.9925 8.30221 18.1913C8.27407 18.39 8.17943 18.5745 8.03249 18.7172C7.9186 18.8328 7.78928 18.9335 7.648 19.0167C7.01827 19.4072 6.38294 19.7762 5.74765 20.1667C5.61765 20.2644 5.47974 20.352 5.33525 20.4287C5.11547 20.5339 4.86429 20.5621 4.62514 20.5084C4.386 20.4547 4.17394 20.3225 4.02563 20.1346C3.91476 20.0015 3.82119 19.8561 3.74699 19.7013C3.14512 18.4872 2.52096 17.2784 1.94138 16.0428C1.67388 15.5079 1.45654 14.8928 1.24478 14.2991C1.15316 14.1266 1.13526 13.9267 1.19491 13.7417C1.25456 13.5567 1.38704 13.4014 1.56417 13.3087C1.74131 13.216 1.94911 13.1933 2.1434 13.2455C2.3377 13.2976 2.50314 13.4204 2.60455 13.5878C2.91626 13.9853 3.19218 14.4076 3.42933 14.8501C4.0312 15.9198 4.60521 16.9895 5.18478 18.0272C5.21853 18.0845 5.25574 18.1398 5.29624 18.193C5.73247 18.0169 6.14277 17.7868 6.5167 17.5083Z" fill="#3A3B7B"/>
<path d="M12.7396 17.1351C11.3631 18.6809 9.05594 18.2904 7.8968 16.3007C7.072 14.8887 6.92712 12.5566 8.72159 11.0857C9.10478 10.7778 9.56298 10.568 10.0535 10.476C10.6549 10.3932 11.2682 10.4951 11.8056 10.7669C12.3431 11.0388 12.7773 11.4668 13.0461 11.9897C14.0269 13.7013 13.8876 15.8835 12.7396 17.1351ZM12.1823 13.5301C12.0361 13.1095 11.7427 12.7504 11.3519 12.5138C11.1308 12.3626 10.8622 12.289 10.5912 12.3056C10.3202 12.3221 10.0634 12.4278 9.86401 12.6048C9.06711 13.2841 8.89989 14.894 9.47947 15.8514C9.55336 16.0076 9.66183 16.1463 9.79741 16.258C9.93299 16.3696 10.0924 16.4515 10.2644 16.4979C10.4363 16.5442 10.6168 16.554 10.7931 16.5264C10.9695 16.4988 11.1373 16.4345 11.2851 16.3382C11.7171 16.0167 12.034 15.5741 12.1918 15.0718C12.3496 14.5695 12.3405 14.0325 12.1656 13.5355L12.1823 13.5301Z" fill="#3A3B7B"/>
<path d="M18.3571 14.2042C18.2161 14.2333 18.0706 14.235 17.9289 14.2093C17.7873 14.1836 17.6524 14.1309 17.5323 14.0545C17.4272 13.9968 17.3367 13.9174 17.2674 13.8221C17.198 13.7269 17.1516 13.618 17.1314 13.5034C17.1111 13.3889 17.1176 13.2714 17.1502 13.1595C17.1829 13.0476 17.2411 12.9441 17.3205 12.8563C17.4589 12.68 17.6553 12.5537 17.8778 12.498C18.4589 12.3361 19.0571 12.2374 19.6611 12.2038C19.7939 12.189 19.9283 12.1998 20.0566 12.2355C20.1849 12.2713 20.3045 12.3313 20.4083 12.412C20.5121 12.4927 20.5981 12.5925 20.6612 12.7056C20.7243 12.8186 20.7632 12.9426 20.7757 13.0703C20.9498 13.6974 20.9689 14.355 20.8314 14.9905C20.3299 17.0444 18.6023 17.7504 16.6629 17.0925C16.1185 16.9166 15.6412 16.5889 15.292 16.1511C14.8262 15.624 14.496 14.9993 14.3279 14.3273C14.1917 13.7288 14.2066 13.1078 14.3714 12.516C14.5362 11.9242 14.8461 11.3789 15.2753 10.9255C15.6825 10.4327 16.2111 10.0448 16.8134 9.7969C17.194 9.59556 17.6393 9.53832 18.0617 9.63643C18.1575 9.66189 18.2445 9.71148 18.3136 9.78007C18.3828 9.84867 18.4315 9.93376 18.4548 10.0265C18.4781 10.1193 18.4752 10.2164 18.4462 10.3076C18.4173 10.3989 18.3634 10.4811 18.2902 10.5457C18.151 10.6666 17.9998 10.7741 17.8388 10.8666C17.3433 11.1695 16.9122 11.5597 16.5682 12.0166C16.3427 12.3123 16.1874 12.6518 16.1133 13.0113C16.0391 13.3707 16.0479 13.7414 16.1391 14.0973C16.2655 14.5825 16.5459 15.018 16.9416 15.3435C18.1676 16.4132 19.7614 15.3809 19.4828 13.9207C19.076 14.017 18.7193 14.1186 18.3571 14.2042Z" fill="#3A3B7B"/>
<path d="M25.847 17.2208C24.0359 18.2906 21.9739 17.2208 21.5225 14.9744C21.1937 13.3698 21.8179 11.1233 24.0025 10.2676C24.4672 10.0894 24.9714 10.0268 25.4681 10.0857C26.0649 10.1905 26.6123 10.4725 27.0332 10.8919C27.4542 11.3112 27.7274 11.8468 27.8143 12.4231C28.1821 14.3325 27.3461 16.3704 25.847 17.2208ZM26.4768 13.6212C26.4762 13.1768 26.3125 12.7469 26.0143 12.407C25.8548 12.1968 25.6244 12.0462 25.3622 11.9808C25.1 11.9155 24.8223 11.9394 24.5764 12.0487C23.5956 12.4552 22.9046 13.9314 23.1554 15.0172C23.1745 15.1876 23.2322 15.3519 23.3244 15.4987C23.4166 15.6455 23.5411 15.7711 23.6892 15.8669C23.8373 15.9627 24.0054 16.0262 24.1817 16.0532C24.3581 16.0801 24.5385 16.0697 24.7102 16.0228C25.2286 15.8489 25.6775 15.5241 25.9942 15.0935C26.3109 14.663 26.4797 14.1482 26.4768 13.6212Z" fill="#3A3B7B"/>
<path d="M29.6458 17.6702C29.6185 17.866 29.5112 18.0433 29.3477 18.1632C29.1841 18.283 28.9776 18.3356 28.7737 18.3094C28.5697 18.2832 28.385 18.1802 28.2601 18.0232C28.1351 17.8663 28.0804 17.6681 28.1077 17.4723C28.1351 17.2766 28.2423 17.0993 28.4058 16.9794C28.5694 16.8595 28.7759 16.8069 28.9799 16.8332C29.1838 16.8594 29.3686 16.9623 29.4935 17.1193C29.6184 17.2763 29.6732 17.4745 29.6458 17.6702ZM29.161 10.4548C29.267 10.2995 29.4224 10.1812 29.6042 10.1175C29.786 10.0539 29.9844 10.0484 30.1697 10.1018C30.3581 10.1471 30.5245 10.253 30.6412 10.402C30.7578 10.551 30.8176 10.7339 30.8106 10.9202C30.786 11.2189 30.7394 11.5156 30.6712 11.808C30.4873 12.7976 30.309 13.7871 30.114 14.7659C30.0248 15.1564 29.9078 15.5308 29.7796 15.9265C29.735 16.0503 29.6605 16.1621 29.5622 16.2528C29.5011 16.3211 29.4231 16.3734 29.3354 16.405C29.2476 16.4367 29.153 16.4466 29.0602 16.4338C28.9674 16.421 28.8795 16.3859 28.8045 16.3319C28.7296 16.2778 28.6701 16.2064 28.6316 16.1245C28.5653 15.9774 28.5293 15.8193 28.5257 15.6591C28.5257 14.9959 28.5257 14.3273 28.5703 13.6587C28.646 12.7045 28.795 11.757 29.0161 10.8239C29.0421 10.6989 29.0911 10.5793 29.161 10.4709V10.4548Z" fill="#3A3B7B"/>
<path fill-rule="evenodd" clip-rule="evenodd" d="M4.16219 21.9682C4.09639 22.1092 4.07834 22.2663 4.1105 22.4176C4.13189 22.617 4.17887 22.8131 4.25038 23.0015C4.33966 23.2322 4.43955 23.4603 4.56273 23.7414C4.59106 23.8061 4.62066 23.8736 4.65164 23.9447C4.81775 24.3255 5.02617 24.8123 5.30418 25.5168C5.38287 25.7169 5.45275 25.9186 5.52311 26.1218C5.55154 26.2039 5.58006 26.2862 5.60926 26.3687C5.71393 26.6622 5.89404 26.9258 6.13276 27.1347C6.23414 27.2495 6.3686 27.3332 6.51937 27.3751C6.67308 27.4177 6.83656 27.415 6.98864 27.3673C7.14072 27.3195 7.27429 27.229 7.37202 27.1074C7.46783 26.9881 7.5248 26.8444 7.53588 26.6943C7.59803 26.4019 7.57682 26.0987 7.47437 25.8168C7.31178 25.3487 7.12656 24.8799 6.91298 24.4214L6.912 24.4194C6.56063 23.7021 6.20348 22.9897 5.82942 22.277L5.82662 22.272C5.71712 22.0864 5.57481 21.9204 5.40609 21.7816C5.29656 21.6576 5.14548 21.5741 4.97863 21.5452C4.80823 21.5158 4.63248 21.5455 4.48277 21.6289C4.34114 21.7066 4.22887 21.8253 4.16219 21.9682Z" fill="#3A3B7B"/>
<path fill-rule="evenodd" clip-rule="evenodd" d="M9.52871 20.2017C8.97778 20.0648 8.40242 20.0448 7.8427 20.1433C7.40918 20.1843 6.98281 20.2802 6.68673 20.4703C6.53615 20.5671 6.4144 20.6913 6.34668 20.8492C6.27859 21.008 6.26989 21.1896 6.3257 21.3919C6.42758 21.7625 6.55989 22.1228 6.69173 22.482L6.71309 22.5402L6.71361 22.5415C7.11058 23.5849 7.51135 24.6248 7.91575 25.6611C7.96291 25.8245 8.0296 25.982 8.11447 26.1306L8.11606 26.1333C8.22818 26.318 8.37199 26.4831 8.54141 26.6218C8.62614 26.698 8.73092 26.7508 8.84454 26.7743C8.95928 26.7981 9.07859 26.7912 9.1895 26.7543C9.30045 26.7175 9.39869 26.6521 9.47356 26.5653C9.54722 26.4799 9.59545 26.3771 9.61316 26.2676C9.68626 25.9703 9.66284 25.6585 9.546 25.3743C9.50955 25.2786 9.48094 25.1808 9.4508 25.0779C9.44075 25.0436 9.43056 25.0087 9.41981 24.9732C10.3455 24.6259 11.3305 24.1589 11.6768 23.0725C11.8125 22.6971 11.8238 22.2906 11.7092 21.9087C11.5945 21.5264 11.3592 21.1875 11.0357 20.9388C10.5954 20.5906 10.081 20.339 9.52871 20.2017ZM8.00161 21.5342C8.01983 21.5292 8.0382 21.5245 8.05662 21.5202C8.65928 21.4292 9.27587 21.5504 9.79286 21.8613C10.0207 22.0133 10.114 22.1823 10.1301 22.3449C10.1466 22.5123 10.0832 22.6937 9.95578 22.8681C9.71505 23.1975 9.27573 23.4611 8.87889 23.5103C8.58959 22.8708 8.29581 22.2055 8.00161 21.5342Z" fill="#3A3B7B"/>
<path d="M13.2016 19.0314C13.8577 18.7406 14.6704 18.6903 15.3064 18.8948C15.4665 18.9396 15.6055 19.0364 15.6995 19.1688C15.7928 19.3003 15.8359 19.4588 15.8215 19.6173C15.8206 19.7201 15.7943 19.8213 15.7448 19.9126C15.6944 20.0056 15.6215 20.0855 15.5321 20.1457C15.4427 20.2058 15.3396 20.2445 15.2314 20.2583C15.1232 20.2722 15.0131 20.2608 14.9104 20.2251L14.9026 20.2224L14.8953 20.2187C14.8427 20.1923 14.7869 20.1725 14.7292 20.1595L14.7256 20.1588C14.2782 20.0447 13.8562 20.2337 13.7021 20.4659C13.6286 20.5766 13.6195 20.6883 13.6807 20.79C13.7463 20.8989 13.9071 21.021 14.2325 21.1081C14.322 21.1317 14.4137 21.1544 14.5068 21.1776C14.7641 21.2415 15.0316 21.3079 15.2901 21.4L15.2911 21.4004C16.4841 21.836 16.9283 22.7383 16.7763 23.5869C16.6258 24.4262 15.8956 25.1899 14.7974 25.3701C14.3978 25.4551 13.982 25.4385 13.591 25.3221C13.1991 25.2052 12.8458 24.992 12.5663 24.7035L12.559 24.696C12.4707 24.5873 12.4114 24.4597 12.3851 24.3242C12.3609 24.2019 12.3736 24.0756 12.4218 23.96C12.4696 23.8451 12.5506 23.7457 12.655 23.6733C12.7654 23.5912 12.8984 23.5419 13.0376 23.5316C13.1764 23.5214 13.3152 23.5503 13.4371 23.6148C13.5588 23.6713 13.672 23.7432 13.7736 23.8288L13.7755 23.8304C13.9552 23.9882 14.1727 24.0293 14.3812 23.9912C14.5928 23.9526 14.7917 23.8324 14.9197 23.673C15.0468 23.5146 15.0979 23.3264 15.0373 23.1437C14.9764 22.9597 14.7931 22.7535 14.3905 22.5812C14.2852 22.5383 14.1761 22.5037 14.0626 22.47C14.032 22.4609 14.0008 22.4519 13.9693 22.4427C13.8854 22.4183 13.799 22.3931 13.7143 22.3653C13.656 22.3462 13.5982 22.3282 13.5409 22.3102C13.3842 22.2613 13.2316 22.2136 13.0846 22.1496C12.7648 22.045 12.4885 21.8444 12.2968 21.5772C12.1044 21.309 12.0075 20.9883 12.0207 20.6629C12.0217 19.8701 12.5421 19.3238 13.2016 19.0314Z" fill="#3A3B7B"/>
<path d="M21.5194 18.9468C21.3922 18.8872 21.2515 18.8589 21.1101 18.8645C20.9687 18.8701 20.8309 18.9093 20.7092 18.9788C20.5883 19.0478 20.4871 19.1444 20.4145 19.2601C20.348 19.3575 20.302 19.4664 20.2791 19.5808C20.2561 19.6951 20.2567 19.8125 20.2806 19.9265C20.3043 20.073 20.3306 20.2155 20.3565 20.3561C20.3995 20.5886 20.4413 20.8159 20.4689 21.0477L20.4699 21.0536C20.5326 21.4171 20.5655 21.7847 20.5684 22.1531L20.5687 22.1583C20.5902 22.5562 20.4489 22.9462 20.1753 23.2458L20.171 23.2511C20.0819 23.3607 19.9629 23.4442 19.8271 23.4926C19.6914 23.5409 19.5444 23.552 19.4024 23.5246C19.2605 23.4973 19.1293 23.4326 19.0235 23.3378C18.9177 23.2429 18.8414 23.1214 18.8033 22.9874C18.722 22.7049 18.6749 22.4143 18.6629 22.1216L18.8018 19.9991C18.8039 19.9714 18.8062 19.943 18.8086 19.9143C18.8139 19.8498 18.8193 19.7842 18.8215 19.7229C18.8248 19.6328 18.822 19.5401 18.8001 19.4524C18.7778 19.3628 18.7352 19.2775 18.6597 19.2049C18.5849 19.133 18.4839 19.0799 18.3569 19.0438C18.1272 18.98 17.933 18.982 17.7711 19.048C17.6092 19.1139 17.4982 19.2363 17.4197 19.3777C17.3418 19.5179 17.2917 19.6839 17.2539 19.8501C17.2258 19.9735 17.2032 20.103 17.1818 20.2263C17.1743 20.2688 17.1671 20.3105 17.1598 20.351L17.1596 20.3522C17.0448 21.0282 17.0106 21.7146 17.0577 22.3981C17.0665 22.7675 17.1468 23.1321 17.2944 23.4732C17.4611 23.9135 17.7628 24.2949 18.16 24.5672C18.5579 24.84 19.0328 24.9904 19.5217 24.9983C20.0107 25.0062 20.4906 24.8714 20.898 24.6117C21.3047 24.3523 21.6199 23.9806 21.8019 23.5458C22.0564 22.9918 22.176 22.3893 22.1513 21.7843C22.1364 21.3426 22.1113 20.8975 22.0864 20.4547C22.0741 20.2374 22.0619 20.0207 22.051 19.8052C22.0455 19.5892 21.9713 19.3799 21.8383 19.2056C21.756 19.0953 21.6464 19.0064 21.5194 18.9468Z" fill="#3A3B7B"/>
<path d="M26.0221 22.2748C26.0092 22.2905 25.9956 22.3068 25.9814 22.3238C25.8779 21.7508 25.782 21.1781 25.6859 20.6045C25.6515 20.3987 25.6169 20.192 25.582 19.9859L25.5781 19.963L25.5654 19.9431C25.5414 19.9057 25.539 19.8691 25.539 19.7909V19.7818L25.5376 19.7729C25.5116 19.6115 25.4355 19.4612 25.3193 19.3418C25.2034 19.2228 25.0528 19.1399 24.8873 19.104C24.722 19.0648 24.5482 19.0734 24.388 19.1288C24.2281 19.184 24.0888 19.2832 23.9874 19.4139C23.9031 19.5142 23.834 19.6255 23.7822 19.7444C23.6646 20.0006 23.5461 20.2574 23.4272 20.515L23.4251 20.5194C23.1283 21.1623 22.8295 21.8095 22.5393 22.4618L22.5384 22.4639C22.3603 22.8868 22.2133 23.3325 22.0668 23.7767C22.0375 23.8654 22.0083 23.9541 21.9788 24.0425C21.9259 24.1827 21.9027 24.3316 21.9107 24.4805C21.9011 24.6137 21.9343 24.7467 22.006 24.8613C22.0791 24.9783 22.1886 25.0703 22.319 25.1245C22.4573 25.1827 22.6118 25.195 22.7582 25.1596C22.9043 25.1243 23.0341 25.0433 23.127 24.9295C23.2457 24.7894 23.3479 24.6365 23.4312 24.4746C23.6769 23.992 23.9118 23.5036 24.1457 23.0173C24.2361 22.8292 24.324 22.6608 24.4241 22.4773C24.4309 22.4999 24.4379 22.522 24.4452 22.5441C24.55 22.9871 24.727 23.4113 24.9695 23.8014C25.0154 23.884 25.0793 23.9562 25.1569 24.0131C25.2354 24.0706 25.326 24.111 25.4224 24.1315C25.5189 24.152 25.6188 24.1521 25.7152 24.1317C25.8116 24.1115 25.9025 24.071 25.981 24.0138L26.1365 23.9021L27.3434 22.9264L27.272 23.3629C27.1741 23.963 27.0768 24.558 26.9736 25.1532C26.906 25.4169 26.9061 25.6925 26.9738 25.9562C27.0032 26.1046 27.078 26.2412 27.1886 26.3487C27.3002 26.457 27.4432 26.5306 27.5989 26.5599C27.7546 26.5893 27.9159 26.573 28.0619 26.5132C28.2058 26.4544 28.3281 26.3559 28.4136 26.2304C28.6126 25.9935 28.7365 25.7066 28.7705 25.404C28.8217 24.9766 28.8796 24.5434 28.9375 24.1103C29.0042 23.6111 29.0709 23.112 29.1272 22.6226L29.1274 22.621C29.1816 22.0852 29.2078 21.5472 29.206 21.0089C29.2179 20.8388 29.1738 20.6693 29.0797 20.5245C28.9854 20.3792 28.8456 20.2662 28.6805 20.2015C28.5087 20.1266 28.3163 20.1065 28.1318 20.1444C27.9484 20.182 27.7825 20.2748 27.658 20.4092C27.4354 20.6068 27.2265 20.8182 27.0328 21.0421L27.0315 21.0436C26.82 21.2966 26.61 21.5544 26.4013 21.8107C26.2744 21.9664 26.1479 22.1218 26.0221 22.2748Z" fill="#3A3B7B"/>
</g>
<defs>
<clipPath id="clip0_211_2056">
<rect width="32.7153" height="20.186" fill="white" transform="translate(1.16028 7.21924)"/>
</clipPath>
</defs>
</svg>
