<svg width="37" height="34" viewBox="0 0 37 34" fill="none" xmlns="http://www.w3.org/2000/svg">
<g clip-path="url(#clip0_211_2076)">
<path d="M8.81739 10.0037C7.40385 10.0037 6.04824 10.5652 5.04873 11.5647L1.78674 14.8267C0.787227 15.8262 0.225708 17.1818 0.225708 18.5953C0.225708 21.5389 2.6119 23.9251 5.55542 23.9251C6.96895 23.9251 8.32457 23.3635 9.32408 22.364L11.5804 20.1077C11.5804 20.1076 11.5805 20.1077 11.5804 20.1077L18.1546 13.5335C18.632 13.0561 19.2794 12.7879 19.9545 12.7879C21.0847 12.7879 22.0429 13.5246 22.3751 14.5439L24.4499 12.4691C23.5034 10.9867 21.8438 10.0037 19.9545 10.0037C18.541 10.0037 17.1853 10.5652 16.1858 11.5647L7.35532 20.3952C6.87795 20.8726 6.23051 21.1408 5.55542 21.1408C4.14961 21.1408 3.00999 20.0012 3.00999 18.5953C3.00999 17.9202 3.27816 17.2728 3.75552 16.7954L7.01749 13.5335C7.49485 13.0561 8.14229 12.7879 8.81739 12.7879C9.94766 12.7879 10.9058 13.5246 11.238 14.544L13.3129 12.4692C12.3664 10.9867 10.7067 10.0037 8.81739 10.0037Z" fill="#394149"/>
<path d="M18.4924 20.3952C18.0151 20.8726 17.3676 21.1408 16.6925 21.1408C15.5624 21.1408 14.6043 20.4043 14.272 19.3851L12.1973 21.4599C13.1438 22.9422 14.8034 23.9251 16.6925 23.9251C18.1061 23.9251 19.4617 23.3635 20.4612 22.364L29.2917 13.5335C29.7691 13.0561 30.4165 12.7879 31.0916 12.7879C32.4974 12.7879 33.637 13.9276 33.637 15.3334C33.637 16.0085 33.3689 16.6559 32.8915 17.1333L29.6295 20.3952C29.1522 20.8726 28.5047 21.1408 27.8296 21.1408C26.6995 21.1408 25.7413 20.4042 25.409 19.3849L23.3343 21.4597C24.2808 22.9421 25.9404 23.9251 27.8296 23.9251C29.2432 23.9251 30.5988 23.3635 31.5983 22.364L34.8603 19.102C35.8598 18.1025 36.4213 16.7469 36.4213 15.3334C36.4213 12.3899 34.0351 10.0037 31.0916 10.0037C29.6781 10.0037 28.3225 10.5652 27.3229 11.5647L18.4924 20.3952Z" fill="#394149"/>
</g>
<defs>
<clipPath id="clip0_211_2076">
<rect width="36.1956" height="13.9214" fill="white" transform="translate(0.225708 10.0037)"/>
</clipPath>
</defs>
</svg>
