<svg width="46" height="40" viewBox="0 0 46 40" fill="none" xmlns="http://www.w3.org/2000/svg">
<path d="M45.7924 26.8835C45.7924 33.8032 40.1828 39.4127 33.2631 39.4127L14.4692 39.4127C12.5471 39.4127 10.9889 37.8545 10.9889 35.9324L10.9889 12.266C10.9889 8.42172 14.1053 5.30531 17.9496 5.30531L42.312 5.30532C44.2342 5.30532 45.7924 6.86352 45.7924 8.78566L45.7924 26.8835Z" fill="#E8F5E9"/>
<path d="M19.2835 13.6657C19.0663 13.6657 18.8898 13.4895 18.8898 13.272V12.6029C18.8898 12.3857 19.066 12.2091 19.2835 12.2091C19.5007 12.2091 19.6773 12.3854 19.6773 12.6029V13.272C19.6773 13.4895 19.5007 13.6657 19.2835 13.6657Z" fill="#103E13"/>
<path d="M17.628 13.6657C17.4108 13.6657 17.2343 13.4895 17.2343 13.272V12.6029C17.2343 12.3857 17.4105 12.2091 17.628 12.2091C17.8452 12.2091 18.0217 12.3854 18.0217 12.6029V13.272C18.0215 13.4895 17.8455 13.6657 17.628 13.6657Z" fill="#103E13"/>
<path d="M15.9727 13.6657C15.7555 13.6657 15.579 13.4895 15.579 13.272V12.6029C15.579 12.3857 15.7553 12.2091 15.9727 12.2091C16.1899 12.2091 16.3665 12.3854 16.3665 12.6029V13.272C16.3665 13.4895 16.1902 13.6657 15.9727 13.6657Z" fill="#103E13"/>
<path d="M19.2835 16.4022C19.0663 16.4022 18.8898 16.2259 18.8898 16.0084V15.3395C18.8898 15.1224 19.066 14.9458 19.2835 14.9458C19.5007 14.9458 19.6773 15.1221 19.6773 15.3395V16.0084C19.6773 16.2259 19.5007 16.4022 19.2835 16.4022Z" fill="#103E13"/>
<path d="M17.628 16.4022C17.4108 16.4022 17.2343 16.2259 17.2343 16.0084V15.3395C17.2343 15.1224 17.4105 14.9458 17.628 14.9458C17.8452 14.9458 18.0217 15.1221 18.0217 15.3395V16.0084C18.0215 16.2259 17.8455 16.4022 17.628 16.4022Z" fill="#103E13"/>
<path d="M15.9727 16.4022C15.7555 16.4022 15.579 16.2259 15.579 16.0084V15.3395C15.579 15.1224 15.7553 14.9458 15.9727 14.9458C16.1899 14.9458 16.3665 15.1221 16.3665 15.3395V16.0084C16.3665 16.2259 16.1902 16.4022 15.9727 16.4022Z" fill="#103E13"/>
<path d="M19.2835 19.1385C19.0663 19.1385 18.8898 18.9622 18.8898 18.7448V18.0756C18.8898 17.8584 19.066 17.6819 19.2835 17.6819C19.5007 17.6819 19.6773 17.8582 19.6773 18.0756V18.7448C19.6773 18.9622 19.5007 19.1385 19.2835 19.1385Z" fill="#103E13"/>
<path d="M17.628 19.1385C17.4108 19.1385 17.2343 18.9622 17.2343 18.7448V18.0756C17.2343 17.8584 17.4105 17.6819 17.628 17.6819C17.8452 17.6819 18.0217 17.8582 18.0217 18.0756V18.7448C18.0215 18.9622 17.8455 19.1385 17.628 19.1385Z" fill="#103E13"/>
<path d="M15.9727 19.1385C15.7555 19.1385 15.579 18.9622 15.579 18.7448V18.0756C15.579 17.8584 15.7553 17.6819 15.9727 17.6819C16.1899 17.6819 16.3665 17.8582 16.3665 18.0756V18.7448C16.3665 18.9622 16.1902 19.1385 15.9727 19.1385Z" fill="#103E13"/>
<path d="M19.2835 21.8744C19.0663 21.8744 18.8898 21.6981 18.8898 21.4806V20.8115C18.8898 20.5943 19.066 20.4177 19.2835 20.4177C19.5007 20.4177 19.6773 20.594 19.6773 20.8115V21.4806C19.6773 21.6981 19.5007 21.8744 19.2835 21.8744Z" fill="#103E13"/>
<path d="M17.628 21.8744C17.4108 21.8744 17.2343 21.6981 17.2343 21.4806V20.8115C17.2343 20.5943 17.4105 20.4177 17.628 20.4177C17.8452 20.4177 18.0217 20.594 18.0217 20.8115V21.4806C18.0215 21.6981 17.8455 21.8744 17.628 21.8744Z" fill="#103E13"/>
<path d="M15.9727 21.8744C15.7555 21.8744 15.579 21.6981 15.579 21.4806V20.8115C15.579 20.5943 15.7553 20.4177 15.9727 20.4177C16.1899 20.4177 16.3665 20.594 16.3665 20.8115V21.4806C16.3665 21.6981 16.1902 21.8744 15.9727 21.8744Z" fill="#103E13"/>
<path d="M19.2835 24.6108C19.0663 24.6108 18.8898 24.4345 18.8898 24.217V23.5482C18.8898 23.331 19.066 23.1544 19.2835 23.1544C19.5007 23.1544 19.6773 23.3307 19.6773 23.5482V24.217C19.6773 24.4342 19.5007 24.6108 19.2835 24.6108Z" fill="#103E13"/>
<path d="M17.628 24.6108C17.4108 24.6108 17.2343 24.4345 17.2343 24.217V23.5482C17.2343 23.331 17.4105 23.1544 17.628 23.1544C17.8452 23.1544 18.0217 23.3307 18.0217 23.5482V24.217C18.0215 24.4342 17.8455 24.6108 17.628 24.6108Z" fill="#103E13"/>
<path d="M15.9727 24.6108C15.7555 24.6108 15.579 24.4345 15.579 24.217L15.5793 23.5482C15.5793 23.331 15.7555 23.1544 15.973 23.1544C16.1902 23.1544 16.3668 23.3307 16.3668 23.5482V24.217C16.3665 24.4342 16.1902 24.6108 15.9727 24.6108Z" fill="#103E13"/>
<path d="M4.72457 27.334C4.72457 27.5512 4.90085 27.7277 5.11832 27.7277H29.0963C29.3135 27.7277 29.4901 27.5514 29.4901 27.334C29.4901 27.1168 29.3138 26.9402 29.0963 26.9402H28.3685V15.6352C28.3685 15.418 28.1922 15.2414 27.9747 15.2414L21.546 15.2417V7.09132C21.546 6.95348 21.4741 6.82608 21.3566 6.75468C21.2393 6.68302 21.0927 6.67863 20.9708 6.74205L13.6618 10.5475C13.5314 10.6153 13.4501 10.7498 13.4501 10.8967V18.0159H6.37663C6.15944 18.0159 5.98288 18.1922 5.98288 18.4097V26.9403H5.11744C4.90026 26.94 4.72424 27.1163 4.72424 27.3338L4.72457 27.334ZM21.5462 21.2051H27.5814V26.9406L21.5462 26.9403V21.2051ZM21.5462 18.469H27.5814V20.4179L21.5462 20.4177V18.469ZM21.5462 16.0288H27.5814V17.682H21.5462V16.0288ZM14.2372 11.1358L20.7584 7.74035V26.9399H14.2372V11.1358ZM8.71681 23.7954C8.71681 22.9783 9.36426 22.3132 10.1603 22.3132C10.9563 22.3132 11.604 22.978 11.604 23.7954V26.9404H8.71681V23.7954ZM6.77035 18.8033H13.45V26.9403H12.3915V23.7953C12.3915 22.544 11.3909 21.5259 10.1603 21.5259C8.93015 21.5259 7.92961 22.5437 7.92961 23.7953V26.9403H6.77035V18.8033Z" fill="#103E13"/>
</svg>
